<svg width="24" height="24" viewBox="0 0 24 24" fill="none" xmlns="http://www.w3.org/2000/svg">
<path d="M1.50012 1.54785C1.50012 1.59473 1.50012 1.59473 1.50012 1.59473L5.90637 6.04785C5.95325 6.00098 5.95325 6.00098 6.00012 6.00098H18.0001C18.0001 6.00098 18.0001 6.04785 18.047 6.04785L22.4532 1.59473C22.4532 1.59473 22.5001 1.59473 22.5001 1.54785L22.4532 1.50098H1.547C1.50012 1.50098 1.50012 1.54785 1.50012 1.54785ZM7.40637 7.50098L12.0001 12.0947L16.547 7.50098H7.40637ZM0.421997 2.67285C0.140747 2.3916 0.00012207 1.96973 0.00012207 1.54785C0.00012207 0.704102 0.656372 0.000976562 1.547 0.000976562H22.4532C23.297 0.000976562 24.0001 0.704102 24.0001 1.54785C24.0001 1.96973 23.8126 2.3916 23.5314 2.67285L12.7501 13.4541V22.501H17.2501C17.6251 22.501 18.0001 22.876 18.0001 23.251C18.0001 23.6729 17.6251 24.001 17.2501 24.001H12.0001H6.75012C6.32825 24.001 6.00012 23.6729 6.00012 23.251C6.00012 22.876 6.32825 22.501 6.75012 22.501H11.2501V13.4541L0.421997 2.67285Z" fill="url(#paint0_linear_32186_3452)"/>
<defs>
<linearGradient id="paint0_linear_32186_3452" x1="0.00012207" y1="0.000976562" x2="26.1527" y2="21.366" gradientUnits="userSpaceOnUse">
<stop stop-color="#53316E"/>
<stop offset="1" stop-color="#723D8B"/>
</linearGradient>
</defs>
</svg>
