<svg width="25" height="24" viewBox="0 0 25 24" fill="none" xmlns="http://www.w3.org/2000/svg">
<path d="M10.0833 3.00098H12.3333H14.5833C14.9583 3.00098 15.3333 3.37598 15.3333 3.75098C15.3333 4.17285 14.9583 4.50098 14.5833 4.50098H13.0833V6.79785C18.5208 7.17285 22.8333 11.7197 22.8333 17.251V18.001H21.3333V17.251C21.3333 12.2822 17.3021 8.25098 12.3333 8.25098C7.36456 8.25098 3.33331 12.2822 3.33331 17.251V18.001H1.83331V17.251C1.83331 11.7197 6.09894 7.17285 11.5833 6.79785V4.50098H10.0833C9.66144 4.50098 9.33331 4.17285 9.33331 3.75098C9.33331 3.37598 9.66144 3.00098 10.0833 3.00098ZM1.08331 19.501H23.5833C23.9583 19.501 24.3333 19.876 24.3333 20.251C24.3333 20.6729 23.9583 21.001 23.5833 21.001H1.08331C0.661438 21.001 0.333313 20.6729 0.333313 20.251C0.333313 19.876 0.661438 19.501 1.08331 19.501Z" fill="url(#paint0_linear_32186_3437)"/>
<defs>
<linearGradient id="paint0_linear_32186_3437" x1="0.333313" y1="0.000976562" x2="26.4859" y2="21.366" gradientUnits="userSpaceOnUse">
<stop stop-color="#33A566"/>
<stop offset="1" stop-color="#AAC858"/>
</linearGradient>
</defs>
</svg>
