<svg width="30" height="25" viewBox="0 0 30 25" fill="none" xmlns="http://www.w3.org/2000/svg">
<path d="M18 1.5C18 3.60938 19.6406 5.25 21.75 5.25C21.75 3.1875 20.0625 1.5 18 1.5ZM23.1562 4.40625C23.5781 3.28125 24.375 2.25 25.5 1.59375C25.8281 1.40625 26.25 1.54688 26.4375 1.82812L27.2344 3.23438C28.2188 4.92188 28.2656 6.89062 27.5625 8.57812C28.0781 8.39062 28.6875 8.25 29.2969 8.25C29.6719 8.25 29.9531 8.57812 29.9531 8.95312V10.5C29.9531 12.4688 29.0156 14.2031 27.5625 15.3281C28.1719 15.4219 28.7344 15.6094 29.25 15.9375C29.5781 16.125 29.6719 16.5469 29.5312 16.8281L28.7344 18.2344C27.4219 20.4844 24.8906 21.5625 22.5 21.1406L22.2656 21.0469C21.7031 20.7656 21.1406 20.5312 20.5781 20.2969C20.1562 20.1562 19.7344 20.0156 19.2656 19.9219C22.0781 18.4219 24 15.4219 24 12C24 10.0781 23.2969 8.25 22.125 6.75H21.75C18.8438 6.75 16.5 4.40625 16.5 1.5V0.75C16.5 0.375 16.8281 0 17.25 0H18C20.5781 0 22.7812 1.92188 23.1562 4.40625ZM14.9531 22.5V22.5469H14.0625C12.3281 22.5469 10.5938 22.9219 9.04688 23.7188L8.57812 23.9531C8.20312 24.1406 7.73438 24 7.54688 23.625C7.35938 23.25 7.54688 22.7812 7.875 22.5938L8.34375 22.3594C9.04688 22.0312 9.75 21.75 10.5 21.5156C9.98438 21.2812 9.46875 21 9 20.6719C8.67188 20.8125 8.34375 20.9062 8.0625 21C5.48438 21.7031 2.625 20.625 1.21875 18.2344L0.46875 16.8281C0.28125 16.5469 0.375 16.125 0.703125 15.9375C1.21875 15.6094 1.78125 15.4219 2.39062 15.3281C0.9375 14.2031 0 12.4688 0 10.5V8.95312C0 8.57812 0.28125 8.25 0.65625 8.25C1.26562 8.25 1.875 8.39062 2.39062 8.57812C1.6875 6.89062 1.78125 4.92188 2.71875 3.23438L3.51562 1.82812C3.70312 1.54688 4.125 1.40625 4.45312 1.59375C5.57812 2.25 6.375 3.28125 6.79688 4.40625C7.21875 1.92188 9.375 0 12 0H12.75C13.125 0 13.5 0.375 13.5 0.75V1.5C13.5 4.40625 11.1094 6.75 8.25 6.75H7.82812C6.65625 8.25 6 10.0781 6 12C6 16.9688 10.0312 21 15 21H15.8906C17.8594 21 19.8281 21.4688 21.6094 22.3594L22.0781 22.5938C22.4531 22.7812 22.5938 23.25 22.4062 23.625C22.2188 23.9531 21.75 24.1406 21.375 23.9531L20.9062 23.7188C19.3594 22.9219 17.625 22.5 15.8906 22.5H15H14.9531ZM8.25 5.25C10.3125 5.25 12 3.60938 12 1.5C10.9219 1.5 9.98438 1.96875 9.28125 2.67188C8.625 3.32812 8.25 4.26562 8.25 5.25ZM4.5 13.5938C4.5 11.7656 3.1875 10.2188 1.5 9.84375V10.5C1.5 12.4688 2.71875 14.1562 4.5 14.7656V13.5938ZM25.5 14.7656C27.2344 14.1562 28.5 12.4688 28.5 10.5V9.84375C26.7656 10.2656 25.5 11.7656 25.5 13.5938V14.7656ZM6.65625 18.6562C5.76562 17.0625 3.89062 16.3594 2.20312 16.9219L2.53125 17.4844C3.51562 19.1719 5.4375 19.9688 7.26562 19.6406L6.65625 18.6562ZM4.5 9.14062L5.10938 8.15625C6 6.5625 5.67188 4.59375 4.35938 3.42188L4.03125 3.98438C3.04688 5.67188 3.32812 7.73438 4.5 9.14062ZM24.8438 8.15625L25.4531 9.14062C26.625 7.73438 26.9062 5.67188 25.9219 3.98438L25.5938 3.42188C24.2812 4.59375 23.9531 6.5625 24.8438 8.15625ZM23.2969 18.6562L22.6875 19.6406C24.5156 19.9688 26.4375 19.1719 27.4219 17.4844L27.75 16.9219C26.0625 16.3594 24.1875 17.0625 23.2969 18.6562Z" fill="#251B1B"/>
</svg>
