<svg width="21" height="24" viewBox="0 0 21 24" fill="none" xmlns="http://www.w3.org/2000/svg">
<path d="M4.5 1.5C2.8125 1.5 1.5 2.85938 1.5 4.5V7.5H19.5V4.5C19.5 2.85938 18.1406 1.5 16.5 1.5H4.5ZM1.5 9V21C1.5 21.8438 2.15625 22.5 3 22.5H18C18.7969 22.5 19.5 21.8438 19.5 21V9H1.5ZM0 4.5C0 2.01562 2.01562 0 4.5 0H16.5C18.9844 0 21 2.01562 21 4.5V21C21 22.6875 19.6406 24 18 24H3C1.3125 24 0 22.6875 0 21V4.5ZM4.875 3.75C5.48438 3.75 6 4.26562 6 4.875C6 5.53125 5.48438 6 4.875 6C4.21875 6 3.75 5.53125 3.75 4.875C3.75 4.26562 4.21875 3.75 4.875 3.75ZM7.5 4.875C7.5 4.26562 7.96875 3.75 8.625 3.75C9.23438 3.75 9.75 4.26562 9.75 4.875C9.75 5.53125 9.23438 6 8.625 6C7.96875 6 7.5 5.53125 7.5 4.875ZM12.375 3.75C12.9844 3.75 13.5 4.26562 13.5 4.875C13.5 5.53125 12.9844 6 12.375 6C11.7188 6 11.25 5.53125 11.25 4.875C11.25 4.26562 11.7188 3.75 12.375 3.75ZM15 4.875C15 4.26562 15.4688 3.75 16.125 3.75C16.7344 3.75 17.25 4.26562 17.25 4.875C17.25 5.53125 16.7344 6 16.125 6C15.4688 6 15 5.53125 15 4.875ZM4.5 12V19.5H16.5V12H4.5ZM3 12C3 11.2031 3.65625 10.5 4.5 10.5H16.5C17.2969 10.5 18 11.2031 18 12V19.5C18 20.3438 17.2969 21 16.5 21H4.5C3.65625 21 3 20.3438 3 19.5V12ZM6 14.25C6 13.875 6.32812 13.5 6.75 13.5H14.25C14.625 13.5 15 13.875 15 14.25C15 14.6719 14.625 15 14.25 15H6.75C6.32812 15 6 14.6719 6 14.25Z" fill="#251B1B"/>
</svg>
