<svg width="24" height="26" viewBox="0 0 24 26" fill="none" xmlns="http://www.w3.org/2000/svg">
<path d="M22.5 13C22.5 9.25 20.4844 5.82812 17.25 3.95312C13.9688 2.03125 9.98438 2.03125 6.75 3.95312C3.46875 5.82812 1.5 9.25 1.5 13C1.5 16.7969 3.46875 20.2188 6.75 22.0938C9.98438 24.0156 13.9688 24.0156 17.25 22.0938C20.4844 20.2188 22.5 16.7969 22.5 13ZM0 13C0 8.73438 2.25 4.79688 6 2.64062C9.70312 0.484375 14.25 0.484375 18 2.64062C21.7031 4.79688 24 8.73438 24 13C24 17.3125 21.7031 21.25 18 23.4062C14.25 25.5625 9.70312 25.5625 6 23.4062C2.25 21.25 0 17.3125 0 13ZM11.25 6.25C11.25 5.875 11.5781 5.5 12 5.5C12.375 5.5 12.75 5.875 12.75 6.25V12.625L16.875 15.3906C17.25 15.625 17.3438 16.0938 17.1094 16.4219C16.875 16.7969 16.4062 16.8906 16.0781 16.6562L11.5781 13.6562C11.3438 13.5156 11.25 13.2812 11.25 13V6.25Z" fill="white"/>
</svg>
