<svg width="22" height="25" viewBox="0 0 22 25" fill="none" xmlns="http://www.w3.org/2000/svg">
<path d="M12.0364 6.15723C11.0521 4.93848 10.0208 3.81348 8.94269 2.73535C7.02081 4.56348 5.38019 6.62598 4.20831 8.59473C2.98956 10.6572 2.33331 12.5791 2.33331 13.9854C2.33331 19.2354 6.36456 23.501 11.3333 23.501C16.2083 23.501 20.3333 19.2354 20.3333 13.9854C20.3333 12.9541 19.8177 11.2666 18.8802 9.3916C18.0364 7.75098 16.9114 6.0166 15.5989 4.65723C15.2239 5.12598 14.8021 5.59473 14.4271 6.11035C14.1458 6.48535 13.6771 6.71973 13.2552 6.71973C12.7864 6.71973 12.3177 6.53223 12.0364 6.15723ZM13.2083 5.21973C13.5364 4.84473 13.8177 4.42285 14.1927 4.00098C14.4271 3.71973 14.7083 3.43848 14.9427 3.2041C15.3177 2.87598 15.8802 2.87598 16.2552 3.2041C17.8958 4.75098 19.2552 6.81348 20.2396 8.73535C21.1771 10.6572 21.8333 12.626 21.8333 13.9854C21.8333 19.9854 17.1458 25.001 11.3333 25.001C5.42706 25.001 0.833313 19.9854 0.833313 13.9854C0.833313 12.2041 1.63019 10.001 2.94269 7.79785C4.25519 5.59473 6.08331 3.29785 8.28644 1.28223C8.66144 0.954102 9.22394 0.954102 9.59894 1.28223C10.4896 2.12598 11.3802 3.06348 12.2239 4.04785C12.5521 4.42285 12.8802 4.79785 13.2083 5.21973ZM6.83331 15.3916H6.78644C6.78644 16.7979 7.30206 17.876 8.09894 18.626C8.94269 19.3291 10.0677 19.751 11.3802 19.751C12.4114 19.751 13.3489 19.4697 14.1927 18.9072C15.7864 17.7822 16.2083 15.5322 15.3646 13.751L14.2864 15.0166C13.6771 15.7197 12.5521 15.7197 11.9427 14.9697C11.1927 13.9854 9.78644 12.2041 9.03644 11.2197C7.44269 13.2354 6.83331 14.3135 6.83331 15.3916ZM10.2083 10.2822C10.9583 11.2666 12.3646 13.0479 13.1146 14.0322L14.2864 12.6729C14.8958 11.9697 16.1146 11.9229 16.6302 12.9072C17.8021 15.251 17.4271 18.4854 15.0364 20.1729C13.9114 20.876 12.7396 21.251 11.3802 21.251C9.73956 21.251 8.23956 20.7354 7.11456 19.7041C5.98956 18.6729 5.33331 17.2197 5.33331 15.3916C5.33331 13.7041 6.27081 12.251 7.86456 10.2822C8.47394 9.53223 9.59894 9.53223 10.2083 10.2822Z" fill="url(#paint0_linear_32186_3391)"/>
<defs>
<linearGradient id="paint0_linear_32186_3391" x1="11.3333" y1="1.00098" x2="11.3333" y2="25.001" gradientUnits="userSpaceOnUse">
<stop stop-color="#DB763E"/>
<stop offset="1" stop-color="#CF3337"/>
</linearGradient>
</defs>
</svg>
