<svg width="31" height="24" viewBox="0 0 31 24" fill="none" xmlns="http://www.w3.org/2000/svg">
<path d="M21.6667 3.00098H9.66675C7.18237 3.00098 5.16675 5.0166 5.16675 7.50098V9.28223C4.698 9.09473 4.18237 9.00098 3.66675 9.00098V7.50098C3.66675 4.21973 6.33862 1.50098 9.66675 1.50098H21.6667C24.948 1.50098 27.6667 4.21973 27.6667 7.50098V9.00098C27.1042 9.00098 26.6355 9.09473 26.1667 9.28223V7.50098C26.1667 5.0166 24.1511 3.00098 21.6667 3.00098ZM5.16675 15.001V13.501C5.16675 12.7041 4.46362 12.001 3.66675 12.001C2.823 12.001 2.16675 12.7041 2.16675 13.501V20.251C2.16675 20.6729 2.49487 21.001 2.91675 21.001H4.41675C4.79175 21.001 5.16675 20.6729 5.16675 20.251V19.501V15.001ZM4.41675 22.501H2.91675C1.65112 22.501 0.666748 21.5166 0.666748 20.251V13.501C0.666748 11.8604 1.97925 10.501 3.66675 10.501C5.30737 10.501 6.66675 11.8604 6.66675 13.501H24.6667C24.6667 11.8604 25.9792 10.501 27.6667 10.501C29.3074 10.501 30.6667 11.8604 30.6667 13.501V20.251C30.6667 21.5166 29.6355 22.501 28.4167 22.501H26.9167C25.9324 22.501 25.0886 21.8916 24.7605 21.001H6.52612C6.198 21.8916 5.35425 22.501 4.41675 22.501ZM6.66675 19.501H24.6667V15.001H6.66675V19.501ZM26.1667 20.251C26.1667 20.6729 26.4949 21.001 26.9167 21.001H28.4167C28.7917 21.001 29.1667 20.6729 29.1667 20.251V13.501C29.1667 12.7041 28.4636 12.001 27.6667 12.001C26.823 12.001 26.1667 12.7041 26.1667 13.501V15.001V19.501V20.251Z" fill="url(#paint0_linear_32186_3467)"/>
<defs>
<linearGradient id="paint0_linear_32186_3467" x1="0.666748" y1="0.000976562" x2="27.3499" y2="27.2491" gradientUnits="userSpaceOnUse">
<stop stop-color="#2A3042"/>
<stop offset="1" stop-color="#4C5265"/>
</linearGradient>
</defs>
</svg>
