<svg width="22" height="24" viewBox="0 0 22 24" fill="none" xmlns="http://www.w3.org/2000/svg">
<path d="M11.5 6.61035C14.4531 6.61035 16.8906 9.04785 16.8906 12.001C16.8906 15.001 14.4531 17.3916 11.5 17.3916C8.5 17.3916 6.10938 15.001 6.10938 12.001C6.10938 9.04785 8.5 6.61035 11.5 6.61035ZM11.5 15.5166C13.4219 15.5166 14.9688 13.9697 14.9688 12.001C14.9688 10.0791 13.4219 8.53223 11.5 8.53223C9.53125 8.53223 7.98438 10.0791 7.98438 12.001C7.98438 13.9697 9.57812 15.5166 11.5 15.5166ZM18.3438 6.42285C18.3438 5.71973 17.7812 5.15723 17.0781 5.15723C16.375 5.15723 15.8125 5.71973 15.8125 6.42285C15.8125 7.12598 16.375 7.68848 17.0781 7.68848C17.7812 7.68848 18.3438 7.12598 18.3438 6.42285ZM21.9062 7.68848C22 9.42285 22 14.626 21.9062 16.3604C21.8125 18.0479 21.4375 19.501 20.2188 20.7666C19 21.9854 17.5 22.3604 15.8125 22.4541C14.0781 22.5479 8.875 22.5479 7.14062 22.4541C5.45312 22.3604 4 21.9854 2.73438 20.7666C1.51562 19.501 1.14062 18.0479 1.04688 16.3604C0.953125 14.626 0.953125 9.42285 1.04688 7.68848C1.14062 6.00098 1.51562 4.50098 2.73438 3.28223C4 2.06348 5.45312 1.68848 7.14062 1.59473C8.875 1.50098 14.0781 1.50098 15.8125 1.59473C17.5 1.68848 19 2.06348 20.2188 3.28223C21.4375 4.50098 21.8125 6.00098 21.9062 7.68848ZM19.6562 18.1885C20.2188 16.8291 20.0781 13.5479 20.0781 12.001C20.0781 10.501 20.2188 7.21973 19.6562 5.81348C19.2812 4.92285 18.5781 4.17285 17.6875 3.84473C16.2812 3.28223 13 3.42285 11.5 3.42285C9.95312 3.42285 6.67188 3.28223 5.3125 3.84473C4.375 4.21973 3.67188 4.92285 3.29688 5.81348C2.73438 7.21973 2.875 10.501 2.875 12.001C2.875 13.5479 2.73438 16.8291 3.29688 18.1885C3.67188 19.126 4.375 19.8291 5.3125 20.2041C6.67188 20.7666 9.95312 20.626 11.5 20.626C13 20.626 16.2812 20.7666 17.6875 20.2041C18.5781 19.8291 19.3281 19.126 19.6562 18.1885Z" fill="#251B1B"/>
</svg>
