<svg width="27" height="22" viewBox="0 0 27 22" fill="none" xmlns="http://www.w3.org/2000/svg">
<path d="M15 2H12C11.5781 2 11.25 2.375 11.25 2.75V5.75C11.25 6.17188 11.5781 6.5 12 6.5H12.75H14.25H15C15.375 6.5 15.75 6.17188 15.75 5.75V2.75C15.75 2.375 15.375 2 15 2ZM12 8C10.7344 8 9.75 7.01562 9.75 5.75V2.75C9.75 1.53125 10.7344 0.5 12 0.5H15C16.2188 0.5 17.25 1.53125 17.25 2.75V5.75C17.25 7.01562 16.2188 8 15 8H14.25V10.25H21.75C22.9688 10.25 24 11.2812 24 12.5V14H24.75C25.9688 14 27 15.0312 27 16.25V19.25C27 20.5156 25.9688 21.5 24.75 21.5H21.75C20.4844 21.5 19.5 20.5156 19.5 19.25V16.25C19.5 15.0312 20.4844 14 21.75 14H22.5V12.5C22.5 12.125 22.125 11.75 21.75 11.75H14.25V14H15C16.2188 14 17.25 15.0312 17.25 16.25V19.25C17.25 20.5156 16.2188 21.5 15 21.5H12C10.7344 21.5 9.75 20.5156 9.75 19.25V16.25C9.75 15.0312 10.7344 14 12 14H12.75V11.75H5.25C4.82812 11.75 4.5 12.125 4.5 12.5V14H5.25C6.46875 14 7.5 15.0312 7.5 16.25V19.25C7.5 20.5156 6.46875 21.5 5.25 21.5H2.25C0.984375 21.5 0 20.5156 0 19.25V16.25C0 15.0312 0.984375 14 2.25 14H3V12.5C3 11.2812 3.98438 10.25 5.25 10.25H12.75V8H12ZM2.25 15.5C1.82812 15.5 1.5 15.875 1.5 16.25V19.25C1.5 19.6719 1.82812 20 2.25 20H5.25C5.625 20 6 19.6719 6 19.25V16.25C6 15.875 5.625 15.5 5.25 15.5H2.25ZM12 15.5C11.5781 15.5 11.25 15.875 11.25 16.25V19.25C11.25 19.6719 11.5781 20 12 20H15C15.375 20 15.75 19.6719 15.75 19.25V16.25C15.75 15.875 15.375 15.5 15 15.5H12ZM21.75 15.5C21.3281 15.5 21 15.875 21 16.25V19.25C21 19.6719 21.3281 20 21.75 20H24.75C25.125 20 25.5 19.6719 25.5 19.25V16.25C25.5 15.875 25.125 15.5 24.75 15.5H21.75Z" fill="#251B1B"/>
</svg>
