<svg width="24" height="24" viewBox="0 0 24 24" fill="none" xmlns="http://www.w3.org/2000/svg">
<path d="M3 4.50098C2.15625 4.50098 1.5 5.2041 1.5 6.00098V7.87598L10.6406 14.626C11.4375 15.1885 12.5156 15.1885 13.3125 14.626L22.5 7.87598V6.00098C22.5 5.2041 21.7969 4.50098 21 4.50098H3ZM1.5 9.75098V18.001C1.5 18.8447 2.15625 19.501 3 19.501H21C21.7969 19.501 22.5 18.8447 22.5 18.001V9.75098L14.2031 15.8447C12.8906 16.7822 11.0625 16.7822 9.75 15.8447L1.5 9.75098ZM0 6.00098C0 4.36035 1.3125 3.00098 3 3.00098H21C22.6406 3.00098 24 4.36035 24 6.00098V18.001C24 19.6885 22.6406 21.001 21 21.001H3C1.3125 21.001 0 19.6885 0 18.001V6.00098Z" fill="#251B1B"/>
</svg>
