<svg width="22" height="24" viewBox="0 0 22 24" fill="none" xmlns="http://www.w3.org/2000/svg">
<path d="M11.7501 0.750977V4.21973L13.4376 2.48535C13.7189 2.2041 14.2345 2.2041 14.5157 2.48535C14.797 2.7666 14.797 3.28223 14.5157 3.56348L11.7501 6.3291V10.7354L15.547 8.53223L16.5314 4.73535C16.672 4.31348 17.047 4.0791 17.4689 4.21973C17.8439 4.31348 18.1251 4.73535 17.9845 5.11035L17.3751 7.4541L20.3282 5.7666C20.7032 5.53223 21.172 5.67285 21.3595 6.00098C21.5939 6.37598 21.4532 6.84473 21.0782 7.03223L18.1251 8.7666L20.4689 9.37598C20.8439 9.5166 21.1251 9.93848 20.9845 10.3135C20.8907 10.7354 20.4689 10.9697 20.0939 10.8291L16.297 9.84473L12.5001 12.001L16.297 14.2041L20.0939 13.2197C20.4689 13.0791 20.8907 13.3135 20.9845 13.7354C21.1251 14.1104 20.8439 14.5322 20.4689 14.626L18.1251 15.2822L21.0782 16.9697C21.4532 17.2041 21.5939 17.6729 21.3595 18.001C21.172 18.376 20.7032 18.5166 20.3282 18.2822L17.3751 16.5947L17.9845 18.9385C18.1251 19.3135 17.8439 19.7354 17.4689 19.8291C17.047 19.9697 16.672 19.6885 16.5314 19.3135L15.547 15.5166L11.7501 13.3135V17.7197L14.5157 20.4854C14.797 20.7666 14.797 21.2822 14.5157 21.5635C14.2345 21.8447 13.7189 21.8447 13.4376 21.5635L11.7501 19.8291V23.251C11.7501 23.6729 11.3751 24.001 11.0001 24.001C10.5782 24.001 10.2501 23.6729 10.2501 23.251V19.8291L8.51575 21.5635C8.2345 21.8447 7.71887 21.8447 7.43762 21.5635C7.15637 21.2822 7.15637 20.7666 7.43762 20.4854L10.2501 17.7197V13.3135L6.40637 15.5166L5.422 19.3135C5.28137 19.7354 4.90637 19.9697 4.4845 19.8291C4.1095 19.7354 3.87512 19.3135 3.96887 18.9385L4.57825 16.5947L1.62512 18.2822C1.25012 18.5166 0.781372 18.376 0.593872 18.001C0.359497 17.6729 0.500122 17.2041 0.875122 17.0166L3.82825 15.2822L1.4845 14.626C1.1095 14.5322 0.875122 14.1104 0.968872 13.7354C1.06262 13.3135 1.4845 13.0791 1.8595 13.2197L5.65637 14.2041L9.50012 12.001L5.65637 9.84473L1.8595 10.8291C1.4845 10.9697 1.06262 10.7354 0.968872 10.3135C0.875122 9.8916 1.1095 9.5166 1.4845 9.37598L3.82825 8.7666L0.875122 7.03223C0.500122 6.84473 0.359497 6.37598 0.593872 6.00098C0.781372 5.67285 1.25012 5.53223 1.62512 5.7666L4.57825 7.4541L3.96887 5.11035C3.87512 4.73535 4.1095 4.31348 4.4845 4.21973C4.90637 4.0791 5.28137 4.31348 5.422 4.73535L6.40637 8.53223L10.2501 10.7354V6.3291L7.43762 3.56348C7.15637 3.28223 7.15637 2.7666 7.43762 2.48535C7.71887 2.2041 8.2345 2.2041 8.51575 2.48535L10.2501 4.21973V0.750977C10.2501 0.375977 10.5782 0.000976562 11.0001 0.000976562C11.3751 0.000976562 11.7501 0.375977 11.7501 0.750977Z" fill="url(#paint0_linear_33939_720)"/>
<defs>
<linearGradient id="paint0_linear_33939_720" x1="11.0001" y1="0.000976562" x2="11.0001" y2="24.001" gradientUnits="userSpaceOnUse">
<stop stop-color="#264C87"/>
<stop offset="1" stop-color="#2973AF"/>
</linearGradient>
</defs>
</svg>
