<svg width="24" height="26" viewBox="0 0 24 26" fill="none" xmlns="http://www.w3.org/2000/svg">
<path d="M22.5 13.001C22.5 9.25098 20.4844 5.8291 17.25 3.9541C13.9688 2.03223 9.98438 2.03223 6.75 3.9541C3.46875 5.8291 1.5 9.25098 1.5 13.001C1.5 16.7979 3.46875 20.2197 6.75 22.0947C9.98438 24.0166 13.9688 24.0166 17.25 22.0947C20.4844 20.2197 22.5 16.7979 22.5 13.001ZM0 13.001C0 8.73535 2.25 4.79785 6 2.6416C9.70312 0.485352 14.25 0.485352 18 2.6416C21.7031 4.79785 24 8.73535 24 13.001C24 17.3135 21.7031 21.251 18 23.4072C14.25 25.5635 9.70312 25.5635 6 23.4072C2.25 21.251 0 17.3135 0 13.001ZM11.25 6.25098C11.25 5.87598 11.5781 5.50098 12 5.50098C12.375 5.50098 12.75 5.87598 12.75 6.25098V12.626L16.875 15.3916C17.25 15.626 17.3438 16.0947 17.1094 16.4229C16.875 16.7979 16.4062 16.8916 16.0781 16.6572L11.5781 13.6572C11.3438 13.5166 11.25 13.2822 11.25 13.001V6.25098Z" fill="#251B1B"/>
</svg>
