<svg width="25" height="26" viewBox="0 0 25 26" fill="none" xmlns="http://www.w3.org/2000/svg">
<path d="M17.5781 13.9385L22.8281 16.1885C23.6719 16.5166 24.1406 17.4072 23.9531 18.2979L22.8281 23.5479C22.6406 24.3916 21.8906 25.0479 21 25.0479C20.6719 25.0479 20.3906 25.001 20.1094 25.001C19.9219 25.001 19.6875 25.001 19.5 24.9541C8.57812 24.2041 0 15.1104 0 4.00098C0 3.15723 0.609375 2.36035 1.45312 2.17285L6.70312 1.04785C7.59375 0.860352 8.48438 1.3291 8.8125 2.17285L11.0625 7.42285C11.3906 8.17285 11.2031 9.06348 10.5469 9.5791L8.625 11.1729C9.89062 13.3291 11.6719 15.1104 13.8281 16.376L15.4219 14.4541C15.9375 13.7979 16.8281 13.6104 17.5781 13.9385ZM20.9531 23.501C21.1406 23.501 21.2812 23.4072 21.3281 23.2197L22.4531 17.9697C22.5 17.7822 22.4062 17.6416 22.2656 17.5479L17.0156 15.2979C16.8281 15.251 16.6875 15.2979 16.5469 15.3916L15 17.3135C14.5312 17.876 13.7344 18.0166 13.0781 17.6416C10.6875 16.2822 8.71875 14.3135 7.35938 11.9229C6.98438 11.2666 7.125 10.4697 7.6875 10.001L9.60938 8.4541C9.70312 8.31348 9.75 8.17285 9.70312 7.98535L7.45312 2.73535C7.35938 2.59473 7.21875 2.50098 7.03125 2.54785L1.78125 3.67285C1.59375 3.67285 1.5 3.86035 1.5 4.00098C1.5 14.7822 10.2188 23.501 20.9531 23.501Z" fill="#251B1B"/>
</svg>
