<svg width="25" height="26" viewBox="0 0 25 26" fill="none" xmlns="http://www.w3.org/2000/svg">
<path d="M17.5781 13.9375L22.8281 16.1875C23.6719 16.5156 24.1406 17.4062 23.9531 18.2969L22.8281 23.5469C22.6406 24.3906 21.8906 25.0469 21 25.0469C20.6719 25.0469 20.3906 25 20.1094 25C19.9219 25 19.6875 25 19.5 24.9531C8.57812 24.2031 0 15.1094 0 4C0 3.15625 0.609375 2.35938 1.45312 2.17188L6.70312 1.04688C7.59375 0.859375 8.48438 1.32812 8.8125 2.17188L11.0625 7.42188C11.3906 8.17188 11.2031 9.0625 10.5469 9.57812L8.625 11.1719C9.89062 13.3281 11.6719 15.1094 13.8281 16.375L15.4219 14.4531C15.9375 13.7969 16.8281 13.6094 17.5781 13.9375ZM20.9531 23.5C21.1406 23.5 21.2812 23.4062 21.3281 23.2188L22.4531 17.9688C22.5 17.7812 22.4062 17.6406 22.2656 17.5469L17.0156 15.2969C16.8281 15.25 16.6875 15.2969 16.5469 15.3906L15 17.3125C14.5312 17.875 13.7344 18.0156 13.0781 17.6406C10.6875 16.2812 8.71875 14.3125 7.35938 11.9219C6.98438 11.2656 7.125 10.4688 7.6875 10L9.60938 8.45312C9.70312 8.3125 9.75 8.17188 9.70312 7.98438L7.45312 2.73438C7.35938 2.59375 7.21875 2.5 7.03125 2.54688L1.78125 3.67188C1.59375 3.67188 1.5 3.85938 1.5 4C1.5 14.7812 10.2188 23.5 20.9531 23.5Z" fill="white"/>
</svg>
