<svg width="18" height="25" viewBox="0 0 18 25" fill="none" xmlns="http://www.w3.org/2000/svg">
<path d="M16.5 9C16.5 4.875 13.125 1.5 9 1.5C4.82812 1.5 1.5 4.875 1.5 9C1.5 9.75 1.73438 10.7344 2.25 12C2.76562 13.2188 3.46875 14.5312 4.3125 15.8438C5.90625 18.4219 7.78125 20.9062 9 22.4062C10.1719 20.9062 12.0469 18.4219 13.6875 15.8438C14.4844 14.5312 15.1875 13.2188 15.7031 12C16.2188 10.7344 16.5 9.75 16.5 9ZM18 9C18 13.125 12.5156 20.3906 10.0781 23.4375C9.51562 24.1406 8.4375 24.1406 7.875 23.4375C5.48438 20.3906 0 13.125 0 9C0 4.03125 4.03125 0 9 0C13.9688 0 18 4.03125 18 9ZM6.75 9C6.75 9.84375 7.17188 10.5469 7.875 10.9688C8.53125 11.3906 9.42188 11.3906 10.125 10.9688C10.7812 10.5469 11.25 9.84375 11.25 9C11.25 8.20312 10.7812 7.5 10.125 7.07812C9.42188 6.65625 8.53125 6.65625 7.875 7.07812C7.17188 7.5 6.75 8.20312 6.75 9ZM9 12.75C7.64062 12.75 6.42188 12.0469 5.71875 10.875C5.0625 9.75 5.0625 8.29688 5.71875 7.125C6.42188 6 7.64062 5.25 9 5.25C10.3125 5.25 11.5312 6 12.2344 7.125C12.8906 8.29688 12.8906 9.75 12.2344 10.875C11.5312 12.0469 10.3125 12.75 9 12.75Z" fill="#251B1B"/>
</svg>
