<svg width="25" height="24" viewBox="0 0 25 24" fill="none" xmlns="http://www.w3.org/2000/svg">
<path d="M14.5417 3.00098L3.10425 12.001H23.1667C23.1667 9.00098 21.8542 6.75098 20.1199 5.25098C18.3855 3.75098 16.2292 3.00098 14.5417 3.00098ZM0.666748 12.751C0.666748 12.3291 0.854248 11.8604 1.22925 11.5791L13.6042 1.8291C13.8386 1.6416 14.1667 1.50098 14.5417 1.50098C16.6042 1.50098 19.0886 2.43848 21.0574 4.12598C23.1199 5.90723 24.6667 8.53223 24.6667 12.001V12.0479V12.0947V12.1416V12.1885V12.2354V12.2822V12.3291V12.376V12.4229V12.4697V12.5166V12.5635V12.6104V12.6572V12.7041V12.751V12.7979V12.8447V12.8916V12.9385V12.9854V13.0322V13.0791V13.126V13.1729V13.2197V13.2666V13.3135V13.3604V13.4072V13.4541V13.501V13.5479V13.5947V13.6416V13.6885V13.7354V13.7822V13.8291V13.876V13.9229V13.9697V14.0166V14.0635V14.1104V14.1572V14.2041V14.251V14.2979V14.3447V14.3916V14.4385V14.4854V14.5322V14.5791V14.626V14.6729V14.7197V14.7666V14.8135V14.8604V14.9072V14.9541V15.001V15.0479V15.0947V15.1416V15.1885V15.2354V15.2822V15.3291V15.376V15.4229V15.4697V15.5166V15.5635V15.6104V15.6572V15.7041V15.751V15.7979V15.8447V15.8916V15.9385V15.9854V16.0322V16.0791V16.126V16.1729V16.2197V16.2666V16.3135V16.3604V16.4072V16.4541V16.501V16.5479V16.5947V16.6416V16.6885V16.7354V16.7822V16.8291V16.876V16.9229V16.9697V17.0166V17.0635V17.1104V17.1572V17.2041V17.251V17.2979V17.3447V17.3916V17.4385V17.4854V17.5322V17.5791V17.626V17.6729V17.7197V17.7666V17.8135V17.8604V17.9072V17.9541V18.001V18.0479V18.0947V18.1416V18.1885V18.2354V18.2822V18.3291V18.376V18.4229V18.4697V18.5166V18.5635V18.6104V18.6572V18.7041V18.751V18.7979V18.8447V18.8916V18.9385V18.9854V19.0322V19.0791V19.126V19.1729V19.2197V19.2666V19.3135V19.3604V19.4072V19.4541V19.501C24.6667 21.1416 23.3074 22.501 21.6667 22.501H3.66675C1.97925 22.501 0.666748 21.1416 0.666748 19.501V17.251V12.751ZM2.16675 16.501H23.1667V16.4541V16.4072V16.3604V16.3135V16.2666V16.2197V16.1729V16.126V16.0791V16.0322V15.9854V15.9385V15.8916V15.8447V15.7979V15.751V15.7041V15.6572V15.6104V15.5635V15.5166V15.4697V15.4229V15.376V15.3291V15.2822V15.2354V15.1885V15.1416V15.0947V15.0479V15.001V14.9541V14.9072V14.8604V14.8135V14.7666V14.7197V14.6729V14.626V14.5791V14.5322V14.4854V14.4385V14.3916V14.3447V14.2979V14.251V14.2041V14.1572V14.1104V14.0635V14.0166V13.9697V13.9229V13.876V13.8291V13.7822V13.7354V13.6885V13.6416V13.5947V13.5479V13.501H2.16675V16.501ZM2.16675 18.001V19.501C2.16675 20.3447 2.823 21.001 3.66675 21.001H21.6667C22.4636 21.001 23.1667 20.3447 23.1667 19.501V19.4541V19.4072V19.3604V19.3135V19.2666V19.2197V19.1729V19.126V19.0791V19.0322V18.9854V18.9385V18.8916V18.8447V18.7979V18.751V18.7041V18.6572V18.6104V18.5635V18.5166V18.4697V18.4229V18.376V18.3291V18.2822V18.2354V18.1885V18.1416V18.0947V18.0479V18.001H2.16675Z" fill="url(#paint0_linear_32186_3421)"/>
<defs>
<linearGradient id="paint0_linear_32186_3421" x1="12.6667" y1="0.000976562" x2="12.6667" y2="24.001" gradientUnits="userSpaceOnUse">
<stop stop-color="#ECBE45"/>
<stop offset="1" stop-color="#CDA145"/>
</linearGradient>
</defs>
</svg>
