<svg width="27" height="24" viewBox="0 0 27 24" fill="none" xmlns="http://www.w3.org/2000/svg">
<path d="M25.7344 5.86035C26.2969 7.8291 26.2969 12.0479 26.2969 12.0479C26.2969 12.0479 26.2969 16.2197 25.7344 18.2354C25.4531 19.3604 24.5625 20.2041 23.4844 20.4854C21.4688 21.001 13.5 21.001 13.5 21.001C13.5 21.001 5.48438 21.001 3.46875 20.4854C2.39062 20.2041 1.5 19.3604 1.21875 18.2354C0.65625 16.2197 0.65625 12.0479 0.65625 12.0479C0.65625 12.0479 0.65625 7.8291 1.21875 5.86035C1.5 4.73535 2.39062 3.84473 3.46875 3.56348C5.48438 3.00098 13.5 3.00098 13.5 3.00098C13.5 3.00098 21.4688 3.00098 23.4844 3.56348C24.5625 3.84473 25.4531 4.73535 25.7344 5.86035ZM10.875 15.8447L17.5312 12.0479L10.875 8.25098V15.8447Z" fill="#251B1B"/>
</svg>
