<svg width="26" height="24" viewBox="0 0 26 24" fill="none" xmlns="http://www.w3.org/2000/svg">
<path d="M18.6931 14.6103C18.7019 14.6148 18.7106 14.6193 18.7192 14.6236L18.6931 14.6103Z" fill="#251B1B"/>
<path d="M8.21247 12.3638C8.19455 12.3403 8.17401 12.3136 8.15517 12.2927C8.06845 12.1766 7.7842 11.7844 7.519 11.2411C7.24573 10.6812 6.99989 9.97532 6.99989 9.25344C6.99989 8.00035 7.57685 7.34323 7.89583 6.97991C7.93115 6.93969 7.96331 6.90306 7.99117 6.86963C8.2126 6.60391 8.47226 6.56042 8.65433 6.56042H9.19999C9.22447 6.56042 9.24688 6.56019 9.26594 6.55999C9.35446 6.55903 9.39135 6.55864 9.44027 6.58454C9.49631 6.61421 9.59409 6.69987 9.72256 6.98038C9.83505 7.28836 10.0541 7.80842 10.25 8.26759L10.3847 8.58299C10.5239 8.90832 10.6289 9.15382 10.6472 9.20865C10.7009 9.36976 10.7275 9.46108 10.6583 9.59947L10.6566 9.603C10.4253 10.0887 10.1775 10.3408 9.98939 10.5323C9.9684 10.5537 9.94814 10.5743 9.92873 10.5944C9.83738 10.689 9.72992 10.8046 9.69046 10.9526C9.6463 11.1182 9.69568 11.2761 9.79081 11.4349C10.402 12.4629 11.0045 13.1657 11.689 13.7231C12.3692 14.2771 13.1227 14.681 14.0237 15.1181C14.1814 15.2113 14.3351 15.2577 14.496 15.2362C14.6524 15.2154 14.7831 15.1338 14.8989 15.0469L14.9222 15.0294L14.9397 15.0061C14.9903 14.9387 15.0837 14.8232 15.1952 14.6852C15.2592 14.6061 15.3292 14.5194 15.4005 14.4303C15.5869 14.1973 15.7861 13.9422 15.878 13.7906C15.9646 13.6621 16.0262 13.6423 16.0644 13.6378C16.1228 13.6309 16.2007 13.6506 16.3405 13.7066C16.6026 13.8114 18.0525 14.509 18.3954 14.6801C18.467 14.7228 18.5342 14.7581 18.5932 14.7884L18.628 14.8062C18.6747 14.8302 18.7131 14.8498 18.7476 14.8695C18.8366 14.9204 18.8447 14.9427 18.8465 14.9482L18.8618 14.9939L18.8835 15.0156C18.8874 15.0272 18.8926 15.0477 18.8968 15.079C18.9054 15.1434 18.9077 15.2357 18.8982 15.3523C18.8794 15.5845 18.8158 15.8934 18.6857 16.2316C18.5729 16.5249 18.2496 16.8369 17.8569 17.0899C17.466 17.3416 17.0606 17.5003 16.8333 17.523L16.8201 17.5248C16.3437 17.6042 15.9315 17.6292 15.4081 17.5322C14.8788 17.4342 14.2268 17.2098 13.2761 16.7752L13.2717 16.7732C11.7771 16.1327 10.5423 15.0613 9.65693 14.1219C9.21519 13.6532 8.86255 13.2196 8.60998 12.8927C8.48368 12.7292 8.38247 12.5925 8.30706 12.4906L8.30609 12.4893C8.2691 12.4394 8.23744 12.3966 8.21247 12.3638Z" fill="#251B1B"/>
<path fill-rule="evenodd" clip-rule="evenodd" d="M21.3539 3.54716L21.3556 3.5489C23.6184 5.81172 25.0129 8.76799 25.0129 11.9865C25.0129 18.5397 19.5317 23.9175 12.918 23.9175C10.9326 23.9175 8.99658 23.3809 7.21724 22.4642L7.14827 22.4287L1.01638 24.001L2.6419 17.9708L2.5997 17.8975C1.57791 16.1229 0.987061 14.0806 0.987061 11.9319C0.987061 5.37582 6.3619 0.000976562 12.918 0.000976562C16.1424 0.000976562 19.1509 1.29047 21.3539 3.54716ZM4.2157 17.4484L4.21989 17.4554L4.44117 17.7652L3.33221 21.7341L7.41572 20.6257L7.66653 20.7929L7.67653 20.7992C9.29159 21.746 11.0762 22.2484 12.918 22.2484C18.6026 22.2484 23.3438 17.6237 23.3438 11.9865C23.3438 9.19424 22.1707 6.62921 20.223 4.68151C18.2717 2.73017 15.7053 1.66999 12.9726 1.66999C7.28511 1.66999 2.65608 6.29759 2.65608 11.9319C2.65608 13.8843 3.21394 15.7788 4.2157 17.4484Z" fill="#251B1B"/>
</svg>
